<?xml version="1.0" encoding="UTF-8"?>
<svg width="262px" height="65px" viewBox="0 0 262 65" version="1.1" xmlns="http://www.w3.org/2000/svg" xmlns:xlink="http://www.w3.org/1999/xlink">
    <!-- Generator: Sketch 46.2 (44496) - http://www.bohemiancoding.com/sketch -->
    <title>semos_edu_logo_color</title>
    <desc>Created with Sketch.</desc>
    <defs></defs>
    <g id="Page-1" stroke="none" stroke-width="1" fill="none" fill-rule="evenodd">
        <g id="semos_edu_logo_color" transform="translate(0.500000, 0.500000)">
            <path d="M42.9240219,11.6385882 L42.0086168,11.2630588 L41.456135,11.8908235 L36.7086022,17.2611765 L37.4325438,17.6743529 C41.2199015,19.8418824 42.9764124,22.7105882 42.1238759,25.3496471 C41.5694891,27.0701176 39.9806277,28.5496471 37.5306569,29.6272941 C33.912854,31.2178824 28.8014453,31.7101176 23.8529234,30.9430588 C19.1368248,30.2117647 15.0579854,28.4470588 12.6642153,26.1035294 L12.3403467,25.7872941 L0,25.7872941 L0.531525547,26.7915294 C3.7740219,32.9101176 14.4273942,37.1811765 26.4410146,37.1811765 C41.2837226,37.1811765 53.3592591,30.7830588 53.3592591,22.9176471 C53.3592591,18.4715294 49.5547555,14.3604706 42.9240219,11.6385882" id="Fill-1" fill="#0071BB"></path>
            <path d="M38.3546168,0 C23.5119088,0 11.4373248,6.39905882 11.4373248,14.2644706 C11.4373248,18.7096471 15.2399234,22.8216471 21.8716095,25.5435294 L22.7851095,25.9190588 L28.0879818,19.9209412 L27.3630876,19.5077647 C23.5738248,17.3402353 21.8211241,14.4715294 22.6708029,11.8334118 C23.2270949,10.112 24.8140511,8.63247059 27.2649745,7.55576471 C30.8837299,5.96517647 35.9941861,5.47294118 40.942708,6.24 C45.6588066,6.97129412 49.737646,8.736 52.1304635,11.0795294 L52.4533796,11.3948235 L64.7956314,11.3948235 L64.2631533,10.3896471 C61.022562,4.272 50.3682372,0 38.3546168,0" id="Fill-2" fill="#0071BB"></path>
            <path d="M78.2533248,15.1567059 C75.2861168,17.6875294 73.4734051,21.1971765 72.8142372,25.6837647 C72.6618285,26.6127059 72.5865766,27.5021176 72.5865766,28.3529412 C72.5865766,31.8381176 73.5438942,34.5825882 75.4585292,36.5882353 C77.3722117,38.5938824 79.9402993,39.5962353 83.1599343,39.5962353 C85.8223248,39.5962353 88.0913102,38.9430588 89.9678431,37.6385882 L91.0709015,30.1505882 C89.0333869,32.0555294 86.9834891,33.008 84.921208,33.008 C83.3171058,33.008 82.0302044,32.4950588 81.0624088,31.4682353 C80.0955657,30.4414118 79.6116679,29.0644706 79.6116679,27.3364706 C79.6116679,25.0089412 80.2984599,22.9552941 81.6729964,21.1774118 C83.1218321,19.2997647 84.904062,18.3604706 87.0158759,18.3604706 C89.2038942,18.3604706 90.9727883,19.4098824 92.3216058,21.5077647 L93.4284745,13.8767059 C91.7300693,12.4743529 89.6249234,11.7722353 87.1149416,11.7722353 C83.8438686,11.7722353 80.8899964,12.9007059 78.2533248,15.1567059" id="Fill-3" fill="#0071BB"></path>
            <polygon id="Fill-4" fill="#0071BB" points="109.198018 28.3021176 110.075321 22.5374118 103.082617 22.5374118 103.571277 18.7727059 111.331741 18.7727059 112.244288 12.4781176 97.7521204 12.4781176 93.9123723 38.8310588 108.440737 38.8310588 109.353285 32.5374118 101.56615 32.5374118 102.183405 28.3021176"></polygon>
            <polygon id="Fill-5" fill="#0071BB" points="127.096522 28.6268235 125.184745 12.4781176 118.40827 12.4781176 111.027876 38.8310588 117.57669 38.8310588 121.575515 23.6687059 123.428234 38.8310588 127.76331 38.8310588 134.077796 23.5745882 133.651051 38.8310588 140.140807 38.8310588 140.46658 12.4781176 133.716777 12.4781176"></polygon>
            <path d="M163.414577,25.6837647 C163.08404,27.8465882 162.317234,29.6188235 161.115109,31.0014118 C159.785343,32.5355294 158.149807,33.3016471 156.207547,33.3016471 C154.622496,33.3016471 153.383223,32.7614118 152.488774,31.68 C151.593372,30.5995294 151.146624,29.1783529 151.146624,27.4183529 C151.146624,26.8658824 151.186631,26.288 151.262836,25.6837647 C151.593372,23.5218824 152.360179,21.7496471 153.562303,20.3670588 C154.892069,18.8338824 156.51427,18.0668235 158.432715,18.0668235 C160.04158,18.0668235 161.29419,18.608 162.188639,19.6884706 C163.08404,20.7698824 163.529836,22.1901176 163.529836,23.9501176 C163.529836,24.5025882 163.490781,25.0814118 163.414577,25.6837647 M159.373839,11.7722353 C155.442646,11.7722353 152.11442,13.0390588 149.389161,15.5698824 C146.662949,18.1016471 144.983595,21.4729412 144.351099,25.6837647 C144.19869,26.5863529 144.121533,27.4512941 144.121533,28.2785882 C144.121533,31.8635294 145.186489,34.6710588 147.316401,36.7002353 C149.320577,38.6305882 151.99535,39.5962353 155.342628,39.5962353 C159.24715,39.5962353 162.574423,38.3303529 165.325401,35.7985882 C168.077332,33.2677647 169.744303,29.8955294 170.328219,25.6837647 C170.478723,24.7322353 170.554927,23.8672941 170.554927,23.0898824 C170.554927,19.5049412 169.502354,16.6974118 167.398161,14.6672941 C165.394938,12.7369412 162.721117,11.7722353 159.373839,11.7722353" id="Fill-6" fill="#0071BB"></path>
            <path d="M178.694507,15.1567059 C175.727299,17.6875294 173.913635,21.1971765 173.254467,25.6837647 C173.102058,26.6127059 173.027759,27.5021176 173.027759,28.3529412 C173.027759,31.8381176 173.984124,34.5825882 175.898759,36.5882353 C177.813394,38.5938824 180.380529,39.5962353 183.601117,39.5962353 C186.263507,39.5962353 188.533445,38.9430588 190.408073,37.6385882 L191.511131,30.1505882 C189.474569,32.0555294 187.423719,33.008 185.362391,33.008 C183.757336,33.008 182.471387,32.4950588 181.504544,31.4682353 C180.536748,30.4414118 180.05285,29.0644706 180.05285,27.3364706 C180.05285,25.0089412 180.739642,22.9552941 182.114179,21.1774118 C183.563967,19.2997647 185.344292,18.3604706 187.458011,18.3604706 C189.646029,18.3604706 191.413018,19.4098824 192.761836,21.5077647 L193.868704,13.8767059 C192.170299,12.4743529 190.066106,11.7722353 187.556124,11.7722353 C184.286004,11.7722353 181.331179,12.9007059 178.694507,15.1567059" id="Fill-7" fill="#0071BB"></path>
            <polygon id="Fill-8" fill-opacity="0.615800498" fill="#3C4252" points="69.8479818 42.9901176 260.672321 42.9901176 260.672321 42.5195294 69.8479818 42.5195294"></polygon>
            <path d="M248.884456,47.4277647 C248.458664,47.4277647 248.068117,47.6141176 247.711861,47.9868235 C247.356558,48.3585882 247.180336,48.7764706 247.180336,49.2432941 C247.180336,49.6385882 247.295595,49.9642353 247.526113,50.2202353 C247.756631,50.4752941 248.056686,50.6042353 248.42342,50.6042353 C248.873026,50.6042353 249.271193,50.4207059 249.620781,50.0536471 C249.971321,49.6875294 250.144686,49.2602353 250.144686,48.7717647 C250.144686,48.3642353 250.029427,48.0376471 249.798909,47.7948235 C249.567438,47.5501176 249.26262,47.4277647 248.884456,47.4277647" id="Fill-9" fill-opacity="0.615800498" fill="#3C4252"></path>
            <path d="M175.103376,53.4663529 C175.43296,53.1463529 175.826365,52.9863529 176.285496,52.9863529 C176.744628,52.9863529 177.091358,53.1463529 177.326639,53.4663529 C177.56192,53.7872941 177.650507,54.1967059 177.591449,54.6974118 L174.449923,54.6974118 C174.555657,54.1967059 174.772839,53.7872941 175.103376,53.4663529 L175.103376,53.4663529 Z M180.044277,56.3567059 C180.13858,55.8682353 180.186208,55.4249412 180.186208,55.0296471 C180.186208,53.7835294 179.869007,52.8244706 179.232701,52.1543529 C178.598299,51.4851765 177.698135,51.1510588 176.533161,51.1510588 C175.238639,51.1510588 174.149869,51.5585882 173.267803,52.3727059 C172.12569,53.4061176 171.555109,54.7962353 171.555109,56.5402353 C171.555109,57.7383529 171.902792,58.6578824 172.596252,59.296 C173.243989,59.9011765 174.13177,60.2032941 175.262453,60.2032941 C177.43904,60.2032941 178.968843,59.2451765 179.849956,57.3270588 L177.147558,57.3270588 C176.912277,58.0216471 176.371226,58.3689412 175.5225,58.3689412 C174.580423,58.3689412 174.109861,57.8418824 174.109861,56.7896471 C174.109861,56.7087059 174.122245,56.5647059 174.145106,56.3567059 L180.044277,56.3567059 Z" id="Fill-10" fill-opacity="0.615800498" fill="#3C4252"></path>
            <path d="M187.253212,57.7863529 L184.559387,57.7863529 C185.238558,57.1708235 185.65292,56.2663529 185.805328,55.072 L186.023464,53.568 L187.883803,53.568 L187.253212,57.7863529 Z M190.43665,62.3209412 L191.08915,57.7863529 L189.977518,57.7863529 L190.895781,51.4682353 L183.817347,51.4682353 L183.359168,54.6578824 C183.076259,56.7256471 182.358033,57.7703529 181.205442,57.7938824 L180.570088,62.3209412 L183.021964,62.3209412 L183.382029,59.8861176 L188.31531,59.8861176 L187.96477,62.3209412 L190.43665,62.3209412 Z" id="Fill-11" fill-opacity="0.615800498" fill="#3C4252"></path>
            <polygon id="Fill-12" fill-opacity="0.615800498" fill="#3C4252" points="199.892661 51.4682353 197.422686 55.9802353 195.939558 51.4682353 192.692299 51.4682353 195.465186 58.6691765 192.384624 63.5567059 195.428036 63.5567059 202.787474 51.4682353"></polygon>
            <polygon id="Fill-13" fill-opacity="0.615800498" fill="#3C4252" points="208.263712 59.8861176 211.8015 59.8861176 208.977175 55.4249412 212.737861 51.4682353 209.312474 51.4682353 206.483387 54.8621176 206.974905 51.4682353 204.142007 51.4682353 202.924642 59.8861176 205.738489 59.8861176 206.292876 56.1835294"></polygon>
            <path d="M219.657219,55.248 C219.657219,55.9021176 219.468613,56.4734118 219.093307,56.9637647 C218.716095,57.4531765 218.23315,57.6978824 217.645423,57.6978824 C216.704299,57.6978824 216.233737,57.1557647 216.233737,56.0705882 C216.233737,55.4183529 216.421391,54.8527059 216.79765,54.3745882 C217.174861,53.8964706 217.656854,53.6564706 218.245533,53.6564706 C219.186657,53.6564706 219.657219,54.1872941 219.657219,55.248 M214.730606,52.5110588 C213.779004,53.5934118 213.303679,54.96 213.303679,56.6108235 C213.303679,57.6687059 213.556106,58.5232941 214.061912,59.1745882 C214.603916,59.8607059 215.355482,60.2032941 216.32042,60.2032941 C217.390139,60.2032941 218.296018,59.7665882 219.037106,58.8922353 L218.89327,59.8861176 L221.598526,59.8861176 L222.817796,51.4682353 L220.110635,51.4682353 L219.962989,52.4903529 C219.446704,51.5981176 218.664657,51.1510588 217.619704,51.1510588 C216.480449,51.1510588 215.517416,51.6047059 214.730606,52.5110588" id="Fill-14" fill-opacity="0.615800498" fill="#3C4252"></path>
            <polygon id="Fill-15" fill-opacity="0.615800498" fill="#3C4252" points="228.056847 51.4682353 225.242047 51.4682353 224.022777 59.8861176 230.656369 59.8861176 230.305828 62.3209412 232.777708 62.3209412 233.430208 57.7863529 232.300478 57.7863529 233.219693 51.4682353 230.404894 51.4682353 229.485679 57.7863529 227.141442 57.7863529"></polygon>
            <polygon id="Fill-16" fill-opacity="0.615800498" fill="#3C4252" points="243.198657 59.8861176 244.416022 51.4682353 241.733628 51.4682353 238.267281 55.9651765 238.936927 51.4682353 236.104029 51.4682353 234.886664 59.8861176 237.626212 59.8861176 241.052551 55.264 240.383858 59.8861176"></polygon>
            <polygon id="Fill-17" fill-opacity="0.615800498" fill="#3C4252" points="245.135201 63.5567059 247.95 63.5567059 249.696985 51.4682353 246.882186 51.4682353"></polygon>
            <path d="M256.830668,56.9637647 C256.452504,57.4531765 255.970511,57.6978824 255.382785,57.6978824 C254.441661,57.6978824 253.971099,57.1557647 253.971099,56.0705882 C253.971099,55.4183529 254.158752,54.8527059 254.535011,54.3745882 C254.912223,53.8964706 255.394215,53.6564706 255.982894,53.6564706 C256.923066,53.6564706 257.395533,54.1872941 257.395533,55.248 C257.395533,55.9021176 257.205974,56.4734118 256.830668,56.9637647 L256.830668,56.9637647 Z M257.699398,52.4903529 C257.183113,51.5981176 256.402971,51.1510588 255.357066,51.1510588 C254.218763,51.1510588 253.254777,51.6047059 252.467967,52.5110588 C251.517318,53.5934118 251.04104,54.96 251.04104,56.6108235 C251.04104,57.6687059 251.293467,58.5232941 251.800226,59.1745882 C252.341277,59.8607059 253.092843,60.2032941 254.057781,60.2032941 C255.128453,60.2032941 256.03338,59.7665882 256.774467,58.8922353 L256.630631,59.8861176 L259.336839,59.8861176 L260.554204,51.4682353 L257.847996,51.4682353 L257.699398,52.4903529 Z" id="Fill-18" fill-opacity="0.615800498" fill="#3C4252"></path>
        </g>
    </g>
</svg>